<mxfile host="app.diagrams.net" agent="Mozilla/5.0 (Windows NT 10.0; Win64; x64) AppleWebKit/537.36 (KHTML, like Gecko) Chrome/127.0.0.0 Safari/537.36" version="24.7.7">
  <diagram name="第 1 页" id="6vvC1uAGn4ZuxoLVjM_T">
    <mxGraphModel dx="1221" dy="725" grid="1" gridSize="10" guides="1" tooltips="1" connect="1" arrows="1" fold="1" page="1" pageScale="1" pageWidth="827" pageHeight="1169" math="0" shadow="0">
      <root>
        <mxCell id="0" />
        <mxCell id="1" parent="0" />
        <mxCell id="ANp0mgAknhhVs-Vaslx7-1" value="基础标绘模块" style="rounded=1;whiteSpace=wrap;html=1;" vertex="1" parent="1">
          <mxGeometry x="354" y="120" width="120" height="60" as="geometry" />
        </mxCell>
        <mxCell id="ANp0mgAknhhVs-Vaslx7-6" style="edgeStyle=orthogonalEdgeStyle;rounded=0;orthogonalLoop=1;jettySize=auto;html=1;exitX=0.5;exitY=1;exitDx=0;exitDy=0;" edge="1" parent="1" source="ANp0mgAknhhVs-Vaslx7-2" target="ANp0mgAknhhVs-Vaslx7-3">
          <mxGeometry relative="1" as="geometry" />
        </mxCell>
        <mxCell id="ANp0mgAknhhVs-Vaslx7-7" value="" style="edgeStyle=orthogonalEdgeStyle;rounded=0;orthogonalLoop=1;jettySize=auto;html=1;endArrow=none;endFill=0;" edge="1" parent="1" source="ANp0mgAknhhVs-Vaslx7-2" target="ANp0mgAknhhVs-Vaslx7-1">
          <mxGeometry relative="1" as="geometry" />
        </mxCell>
        <mxCell id="ANp0mgAknhhVs-Vaslx7-8" style="edgeStyle=orthogonalEdgeStyle;rounded=0;orthogonalLoop=1;jettySize=auto;html=1;exitX=0.5;exitY=1;exitDx=0;exitDy=0;" edge="1" parent="1" source="ANp0mgAknhhVs-Vaslx7-2" target="ANp0mgAknhhVs-Vaslx7-4">
          <mxGeometry relative="1" as="geometry" />
        </mxCell>
        <mxCell id="ANp0mgAknhhVs-Vaslx7-9" style="edgeStyle=orthogonalEdgeStyle;rounded=0;orthogonalLoop=1;jettySize=auto;html=1;exitX=0.5;exitY=1;exitDx=0;exitDy=0;" edge="1" parent="1" source="ANp0mgAknhhVs-Vaslx7-2" target="ANp0mgAknhhVs-Vaslx7-5">
          <mxGeometry relative="1" as="geometry" />
        </mxCell>
        <mxCell id="ANp0mgAknhhVs-Vaslx7-2" value="标绘工具选择" style="rounded=1;whiteSpace=wrap;html=1;" vertex="1" parent="1">
          <mxGeometry x="354" y="210" width="120" height="60" as="geometry" />
        </mxCell>
        <mxCell id="ANp0mgAknhhVs-Vaslx7-11" style="edgeStyle=orthogonalEdgeStyle;rounded=0;orthogonalLoop=1;jettySize=auto;html=1;exitX=0.5;exitY=1;exitDx=0;exitDy=0;entryX=0.5;entryY=0;entryDx=0;entryDy=0;" edge="1" parent="1" source="ANp0mgAknhhVs-Vaslx7-3" target="ANp0mgAknhhVs-Vaslx7-10">
          <mxGeometry relative="1" as="geometry" />
        </mxCell>
        <mxCell id="ANp0mgAknhhVs-Vaslx7-3" value="点、线、面等&lt;div&gt;平面几何图形&lt;/div&gt;" style="rounded=1;whiteSpace=wrap;html=1;" vertex="1" parent="1">
          <mxGeometry x="200" y="310" width="120" height="60" as="geometry" />
        </mxCell>
        <mxCell id="ANp0mgAknhhVs-Vaslx7-12" style="edgeStyle=orthogonalEdgeStyle;rounded=0;orthogonalLoop=1;jettySize=auto;html=1;exitX=0.5;exitY=1;exitDx=0;exitDy=0;" edge="1" parent="1" source="ANp0mgAknhhVs-Vaslx7-4" target="ANp0mgAknhhVs-Vaslx7-10">
          <mxGeometry relative="1" as="geometry" />
        </mxCell>
        <mxCell id="ANp0mgAknhhVs-Vaslx7-4" value="立体几何图形" style="rounded=1;whiteSpace=wrap;html=1;" vertex="1" parent="1">
          <mxGeometry x="354" y="310" width="120" height="60" as="geometry" />
        </mxCell>
        <mxCell id="ANp0mgAknhhVs-Vaslx7-13" style="edgeStyle=orthogonalEdgeStyle;rounded=0;orthogonalLoop=1;jettySize=auto;html=1;exitX=0.5;exitY=1;exitDx=0;exitDy=0;entryX=0.5;entryY=0;entryDx=0;entryDy=0;" edge="1" parent="1" source="ANp0mgAknhhVs-Vaslx7-5" target="ANp0mgAknhhVs-Vaslx7-10">
          <mxGeometry relative="1" as="geometry" />
        </mxCell>
        <mxCell id="ANp0mgAknhhVs-Vaslx7-5" value="徽标图文" style="rounded=1;whiteSpace=wrap;html=1;" vertex="1" parent="1">
          <mxGeometry x="500" y="310" width="120" height="60" as="geometry" />
        </mxCell>
        <mxCell id="ANp0mgAknhhVs-Vaslx7-16" style="edgeStyle=orthogonalEdgeStyle;rounded=0;orthogonalLoop=1;jettySize=auto;html=1;exitX=0.5;exitY=1;exitDx=0;exitDy=0;" edge="1" parent="1" source="ANp0mgAknhhVs-Vaslx7-10" target="ANp0mgAknhhVs-Vaslx7-14">
          <mxGeometry relative="1" as="geometry" />
        </mxCell>
        <mxCell id="ANp0mgAknhhVs-Vaslx7-10" value="具体类型确定" style="rounded=1;whiteSpace=wrap;html=1;" vertex="1" parent="1">
          <mxGeometry x="354" y="410" width="120" height="60" as="geometry" />
        </mxCell>
        <mxCell id="ANp0mgAknhhVs-Vaslx7-17" style="edgeStyle=orthogonalEdgeStyle;rounded=0;orthogonalLoop=1;jettySize=auto;html=1;exitX=0.5;exitY=1;exitDx=0;exitDy=0;entryX=0.5;entryY=0;entryDx=0;entryDy=0;" edge="1" parent="1" source="ANp0mgAknhhVs-Vaslx7-14" target="ANp0mgAknhhVs-Vaslx7-15">
          <mxGeometry relative="1" as="geometry" />
        </mxCell>
        <mxCell id="ANp0mgAknhhVs-Vaslx7-14" value="提供画布让&lt;div&gt;用户&lt;span style=&quot;background-color: initial;&quot;&gt;绘制图形&lt;/span&gt;&lt;/div&gt;" style="rounded=1;whiteSpace=wrap;html=1;" vertex="1" parent="1">
          <mxGeometry x="354" y="510" width="120" height="60" as="geometry" />
        </mxCell>
        <mxCell id="ANp0mgAknhhVs-Vaslx7-18" style="edgeStyle=orthogonalEdgeStyle;rounded=0;orthogonalLoop=1;jettySize=auto;html=1;exitX=1;exitY=0.5;exitDx=0;exitDy=0;entryX=1;entryY=0.5;entryDx=0;entryDy=0;" edge="1" parent="1" source="ANp0mgAknhhVs-Vaslx7-15" target="ANp0mgAknhhVs-Vaslx7-14">
          <mxGeometry relative="1" as="geometry">
            <Array as="points">
              <mxPoint x="510" y="640" />
              <mxPoint x="510" y="540" />
            </Array>
          </mxGeometry>
        </mxCell>
        <mxCell id="ANp0mgAknhhVs-Vaslx7-19" value="用户调整" style="edgeLabel;html=1;align=center;verticalAlign=middle;resizable=0;points=[];fontSize=12;" vertex="1" connectable="0" parent="ANp0mgAknhhVs-Vaslx7-18">
          <mxGeometry x="0.3286" y="-1" relative="1" as="geometry">
            <mxPoint y="23" as="offset" />
          </mxGeometry>
        </mxCell>
        <mxCell id="ANp0mgAknhhVs-Vaslx7-21" style="edgeStyle=orthogonalEdgeStyle;rounded=0;orthogonalLoop=1;jettySize=auto;html=1;exitX=0.5;exitY=1;exitDx=0;exitDy=0;" edge="1" parent="1" source="ANp0mgAknhhVs-Vaslx7-15" target="ANp0mgAknhhVs-Vaslx7-20">
          <mxGeometry relative="1" as="geometry" />
        </mxCell>
        <mxCell id="ANp0mgAknhhVs-Vaslx7-15" value="系统展示预览效果" style="rounded=1;whiteSpace=wrap;html=1;" vertex="1" parent="1">
          <mxGeometry x="354" y="610" width="120" height="60" as="geometry" />
        </mxCell>
        <mxCell id="ANp0mgAknhhVs-Vaslx7-20" value="用户确认输出标绘" style="rounded=1;whiteSpace=wrap;html=1;" vertex="1" parent="1">
          <mxGeometry x="354" y="710" width="120" height="60" as="geometry" />
        </mxCell>
      </root>
    </mxGraphModel>
  </diagram>
</mxfile>
